<svg xmlns="http://www.w3.org/2000/svg" aria-hidden="true" width="11" height="11" viewBox="0 -18 1024 1055"><path d="M810.642 511.557c0 8.905-3.447 16.776-10.284 23.613L322.31 1013.216c-6.835 6.837-14.706 10.284-23.61 10.284s-16.776-3.447-23.613-10.284l-51.303-51.303c-6.837-6.837-10.284-14.707-10.284-23.612s3.447-16.775 10.284-23.61L626.972 511.5 223.784 108.31c-6.837-6.835-10.284-14.706-10.284-23.61s3.447-16.776 10.284-23.613l51.303-51.303C281.924 2.947 289.794-.5 298.7-.5s16.775 3.447 23.61 10.284L800.36 487.83c6.837 6.837 10.284 14.708 10.284 23.613v.114" stroke-width="25" stroke="black"></path></svg>