<svg xmlns="http://www.w3.org/2000/svg" xmlns:xlink="http://www.w3.org/1999/xlink" width="1819"
  height="344" viewBox="0 0 1819 344">
  <defs>
    <clipPath id="a">
      <path d="M0,0H727.4V319.3H0Z" transform="translate(880 201.469)" fill="#efefef" />
    </clipPath>
    <clipPath id="b">
      <rect width="563" height="343.531" transform="translate(-41.601 160.92)" fill="none" />
    </clipPath>
    <clipPath id="c">
      <rect width="556.441" height="429.325" fill="none" />
    </clipPath>
    <clipPath id="e">
      <rect width="1819" height="344" />
    </clipPath>
  </defs>
  <g id="d" clip-path="url(#e)">
    <rect width="1819" height="344" fill="#f2f2f2" />
    <g transform="translate(0 -170)">
      <path d="M0,0H1819V344H0Z" transform="translate(0 170)" fill="#f2f2f2" />
      <g transform="translate(164 -31)" clip-path="url(#a)">
        <g transform="translate(985.601 40.549)" clip-path="url(#b)">
          <g transform="translate(-35.883 56.707)" opacity="0.6">
            <g transform="translate(-1 -1.004)" clip-path="url(#c)">
              <path
                d="M1107.63,1204.318v1.9a9.515,9.515,0,0,1,3.872,18.211l-.006,0-.005,0-79.627,35.98a9.284,9.284,0,0,1-3.854.821,9.509,9.509,0,0,1-3.865-18.2l.005,0,.006,0,79.626-35.98a9.288,9.288,0,0,1,3.849-.831Zm0,0a11.223,11.223,0,0,0-4.63,1l-79.626,35.98a11.408,11.408,0,0,0,4.636,21.835,11.241,11.241,0,0,0,4.636-.99l79.626-35.98a11.414,11.414,0,0,0-4.643-21.845"
                transform="translate(-823.583 -975.663)" fill="#b9b9b9" />
              <path
                d="M629.931,1218.416v1.9a9.515,9.515,0,0,1,3.87,18.212l-50.037,22.281-.005,0-.005,0a9.285,9.285,0,0,1-3.854.821,9.509,9.509,0,0,1-3.864-18.2l50.037-22.281,0,0,0,0a9.286,9.286,0,0,1,3.849-.831Zm0,0a11.224,11.224,0,0,0-4.63,1L575.264,1241.7a11.408,11.408,0,0,0,4.636,21.835,11.242,11.242,0,0,0,4.636-.99l50.037-22.281a11.414,11.414,0,0,0-4.643-21.845"
                transform="translate(-460.552 -987.084)" fill="#b9b9b9" />
              <path
                d="M2185.373,699.329v1.9a9.515,9.515,0,0,1,3.871,18.211l-.005,0-.006,0-79.627,35.98a9.283,9.283,0,0,1-3.854.821,9.509,9.509,0,0,1-3.865-18.2l.005,0,.006,0,79.626-35.98a9.286,9.286,0,0,1,3.849-.831Zm0,0a11.225,11.225,0,0,0-4.63,1l-79.626,35.98a11.408,11.408,0,0,0,4.636,21.836,11.243,11.243,0,0,0,4.636-.99l79.625-35.98a11.414,11.414,0,0,0-4.642-21.845"
                transform="translate(-1696.703 -566.552)" fill="#b9b9b9" />
              <path
                d="M61.445,1672.5v1.9a9.515,9.515,0,0,1,3.87,18.211L15.278,1714.9l-.005,0-.005,0a9.285,9.285,0,0,1-3.854.821,9.509,9.509,0,0,1-3.864-18.2l50.037-22.281,0,0,0,0a9.286,9.286,0,0,1,3.849-.831Zm0,0a11.224,11.224,0,0,0-4.63,1L6.778,1695.784a11.408,11.408,0,0,0,4.636,21.835,11.241,11.241,0,0,0,4.636-.99l50.037-22.281a11.414,11.414,0,0,0-4.643-21.844"
                transform="translate(0 -1354.958)" fill="#b9b9b9" />
              <path
                d="M2608.43,0v1.9a9.515,9.515,0,0,1,3.87,18.212l-50.037,22.281-.005,0-.005,0a9.284,9.284,0,0,1-3.854.821,9.509,9.509,0,0,1-3.864-18.2l50.037-22.281,0,0,0,0a9.287,9.287,0,0,1,3.849-.831Zm0,0a11.225,11.225,0,0,0-4.63,1l-50.037,22.281a11.408,11.408,0,0,0,4.636,21.835,11.239,11.239,0,0,0,4.636-.99l50.037-22.281A11.414,11.414,0,0,0,2608.43,0"
                transform="translate(-2063.409 0.004)" fill="#b9b9b9" />
              <path
                d="M182.7,757.416v1.9a9.515,9.515,0,0,1,3.871,18.211l0,0,0,0L70.222,829.949a9.284,9.284,0,0,1-3.854.821,9.509,9.509,0,0,1-3.865-18.2l0,0,0,0,116.34-52.419a9.288,9.288,0,0,1,3.848-.831Zm0,0a11.225,11.225,0,0,0-4.63,1L61.732,810.833a11.408,11.408,0,0,0,4.636,21.836,11.242,11.242,0,0,0,4.636-.99l116.339-52.418a11.414,11.414,0,0,0-4.643-21.845"
                transform="translate(-44.521 -613.61)" fill="#b9b9b9" />
              <path
                d="M516.852,1864.886v1.9A9.515,9.515,0,0,1,520.724,1885l0,0,0,0-116.341,52.42a9.286,9.286,0,0,1-3.854.821,9.509,9.509,0,0,1-3.866-18.2l0,0,0,0L513,1867.615a9.288,9.288,0,0,1,3.848-.831Zm0,0a11.222,11.222,0,0,0-4.63,1L395.883,1918.3a11.408,11.408,0,0,0,4.636,21.835,11.24,11.24,0,0,0,4.636-.99l116.339-52.418a11.414,11.414,0,0,0-4.643-21.845"
                transform="translate(-322.229 -1522.814)" fill="#b9b9b9" />
              <path
                d="M2045.028,1149.913v1.9a9.515,9.515,0,0,1,3.871,18.211l0,0,0,0-116.341,52.419a9.285,9.285,0,0,1-3.854.821,9.509,9.509,0,0,1-3.865-18.2l0,0,0,0,116.34-52.419a9.284,9.284,0,0,1,3.848-.831Zm0,0a11.225,11.225,0,0,0-4.63,1l-116.339,52.418a11.408,11.408,0,0,0,4.636,21.836,11.24,11.24,0,0,0,4.637-.99l116.339-52.418a11.414,11.414,0,0,0-4.642-21.845"
                transform="translate(-1553.262 -931.587)" fill="#b9b9b9" />
              <path
                d="M2222.085,361.636v1.9a9.515,9.515,0,0,1,3.871,18.211l0,0,0,0-116.341,52.419a9.287,9.287,0,0,1-3.854.821,9.509,9.509,0,0,1-3.865-18.2l0,0,0,0,116.34-52.419a9.29,9.29,0,0,1,3.849-.831Zm0,0a11.227,11.227,0,0,0-4.631,1l-116.338,52.418a11.408,11.408,0,0,0,4.636,21.835,11.244,11.244,0,0,0,4.637-.99l116.338-52.418a11.414,11.414,0,0,0-4.642-21.845"
                transform="translate(-1696.703 -292.974)" fill="#b9b9b9" />
              <path
                d="M901.75,1162.277a11.412,11.412,0,0,1-4.654-21.835l50.046-22.281a11.411,11.411,0,0,1,9.291,20.846l-50.046,22.281a11.3,11.3,0,0,1-4.636.99"
                transform="translate(-721.288 -905.048)" fill="#b9b9b9" />
              <path
                d="M779.934,1479.762a11.412,11.412,0,0,1-4.654-21.835l50.037-22.281a11.411,11.411,0,0,1,9.291,20.846l-50.037,22.281a11.275,11.275,0,0,1-4.636.99"
                transform="translate(-622.6 -1162.261)" fill="#b9b9b9" />
              <path
                d="M2472.244,463.1a11.408,11.408,0,0,1-4.636-21.835l50.055-22.281a11.408,11.408,0,1,1,9.273,20.846l-50.055,22.281a11.241,11.241,0,0,1-4.636.99"
                transform="translate(-2003.611 -338.63)" fill="#b9b9b9" />
              <path
                d="M2350.428,780.52a11.408,11.408,0,0,1-4.636-21.835l50.037-22.281a11.408,11.408,0,1,1,9.273,20.846l-50.037,22.281a11.243,11.243,0,0,1-4.636.99"
                transform="translate(-1894.924 -595.779)" fill="#b9b9b9" />
              <path
                d="M1307.2,1204.3a175.168,175.168,0,0,1-111.8-40.488,11.413,11.413,0,0,1,14.533-17.6,153.008,153.008,0,0,0,250.4-111.468,11.14,11.14,0,0,1,11.876-10.922,11.41,11.41,0,0,1,10.913,11.885A176.3,176.3,0,0,1,1307.2,1204.3"
                transform="translate(-965.086 -829.405)" fill="#dedede" />
              <path
                d="M889.817,301.564c-.178,0-.348,0-.526-.009A11.419,11.419,0,0,1,878.4,289.634a175.828,175.828,0,0,1,287.7-127.624,11.418,11.418,0,0,1-14.551,17.6A152.985,152.985,0,0,0,901.211,290.668a11.419,11.419,0,0,1-11.395,10.9"
                transform="translate(-711.619 -98.455)" fill="#dedede" />
            </g>
          </g>
        </g>
      </g>
    </g>
  </g>
</svg>